<svg xmlns="http://www.w3.org/2000/svg" xmlns:xlink="http://www.w3.org/1999/xlink" viewBox="0 0 694.67 270.72"><defs><style>.a,.ad,.ak{fill:none;}.b{clip-path:url(#a);}.c{fill:#008645;}.d{fill:#e5e5e3;}.e{fill:#353535;}.f{fill:#c7b99a;}.g{fill:#90814e;}.h{fill:#3a3a3a;}.i{fill:#c6c6c5;}.j{fill:#d9d9d9;}.k{fill:#b5b5b5;}.l{fill:#cfcece;}.m{fill:#d3d3d3;}.n{fill:#c6c6c6;}.o{clip-path:url(#c);}.p{fill:#008545;}.q{fill:#262626;}.r{fill:#e4e4e2;}.s{fill:#d35400;}.ae,.af,.ag,.ah,.ai,.t,.x,.y{fill:#fff;}.u{clip-path:url(#e);}.v{clip-path:url(#f);}.w{fill:#c1c1c0;}.x{font-size:5px;}.x,.y{font-family:ArialMT, Arial;}.y{font-size:6px;}.z{clip-path:url(#h);}.aa{fill:#2e2e2e;}.ab{fill:#d8c9ab;}.ac{fill:#e2d2b3;}.ad{stroke:#e74c3c;}.ad,.ae,.af,.ag,.ah,.ai,.ak{stroke-miterlimit:10;}.ad,.ae,.af,.ag,.ah,.ai{stroke-width:1.8px;}.ae{stroke:#27ae60;}.af{stroke:#2980b9;}.ag{stroke:#8e44ad;}.ah{stroke:#16a085;}.ai,.ak{stroke:#353535;}.aj{font-size:12px;font-family:Roboto-Black, Roboto;}.ak{stroke-width:4px;}.al{fill:#474e5d;}.am{fill:#b7b9bd;}.an{fill:#e8ebf0;}.ao{fill:#d8dbe1;}.ap{fill:#fa565a;}.aq{fill:#a5adbd;}.ar{opacity:0.1;isolation:isolate;fill:url(#i);}</style><clipPath id="a"><rect class="a" x="470.56" y="12.04" width="158.74" height="246.64"/></clipPath><clipPath id="c"><rect class="a" x="203" y="17.55" width="167.7" height="59"/></clipPath><clipPath id="e"><rect class="a" x="259.5" y="68.28" width="9.39" height="4.63"/></clipPath><clipPath id="f"><rect class="a" x="332.59" y="53.77" width="9.11" height="7.42"/></clipPath><clipPath id="h"><rect class="a" x="357.64" y="25.76" width="13.06" height="42.57"/></clipPath><linearGradient id="i" x1="1426.69" y1="-536.8" x2="1426.69" y2="-477.38" gradientTransform="translate(-1298.5 554.75)" gradientUnits="userSpaceOnUse"><stop offset="0" stop-color="#fff"/><stop offset="1" stop-color="#fff" stop-opacity="0"/></linearGradient></defs><title>programming</title><g class="b"><g class="b"><path class="c" d="M470.56,257.93V12.79a.75.75,0,0,1,.75-.75H628.56a.74.74,0,0,1,.74.75V257.93a.75.75,0,0,1-.74.75H471.31a.76.76,0,0,1-.75-.75"/><rect class="d" x="559.92" y="27.23" width="2.37" height="40.15"/><rect class="d" x="537.97" y="27.23" width="2.37" height="40.15"/><rect class="d" x="545.25" y="27.48" width="2.37" height="40.15"/><rect class="d" x="552.78" y="27.23" width="2.37" height="40.15"/><rect class="e" x="535.99" y="32.96" width="28.28" height="28"/><path class="f" d="M561.22,38.55a1.16,1.16,0,1,1,1.15-1.16,1.16,1.16,0,0,1-1.15,1.16"/><rect class="d" x="523.02" y="26.89" width="2.37" height="40.15"/><rect class="d" x="501.08" y="26.89" width="2.37" height="40.15"/><rect class="d" x="508.36" y="27.15" width="2.37" height="40.15"/><rect class="d" x="515.89" y="26.89" width="2.37" height="40.15"/><rect class="e" x="499.09" y="32.63" width="28.28" height="28"/><path class="f" d="M524.33,38.21a1.15,1.15,0,1,1,1.15-1.15,1.15,1.15,0,0,1-1.15,1.15"/><rect class="d" x="523.02" y="145.1" width="2.37" height="40.15"/><rect class="d" x="501.08" y="145.1" width="2.37" height="40.15"/><rect class="d" x="508.36" y="145.36" width="2.37" height="40.15"/><rect class="d" x="515.89" y="145.1" width="2.37" height="40.15"/><rect class="e" x="499.09" y="150.83" width="28.28" height="28"/><path class="f" d="M524.33,156.42a1.16,1.16,0,1,1,1.15-1.15,1.16,1.16,0,0,1-1.15,1.15"/><rect class="d" x="559.92" y="144.97" width="2.37" height="40.15"/><rect class="d" x="537.97" y="144.97" width="2.37" height="40.15"/><rect class="d" x="545.25" y="145.22" width="2.37" height="40.15"/><rect class="d" x="552.78" y="144.97" width="2.37" height="40.15"/><rect class="e" x="535.99" y="150.7" width="28.28" height="28"/><path class="f" d="M561.22,156.29a1.16,1.16,0,1,1,1.15-1.15,1.16,1.16,0,0,1-1.15,1.15"/><rect class="d" x="534.73" y="80.34" width="5.33" height="7.77"/><rect class="d" x="545.17" y="80.34" width="5.34" height="7.77"/><rect class="g" x="538.01" y="80.34" width="9.57" height="7.77"/><rect class="d" x="534.73" y="95.1" width="5.33" height="7.77"/><rect class="d" x="545.17" y="95.1" width="5.34" height="7.77"/><rect class="h" x="538.01" y="95.1" width="9.57" height="7.77"/><rect class="d" x="534.73" y="109.86" width="5.33" height="7.77"/><rect class="d" x="545.17" y="109.86" width="5.34" height="7.77"/><rect class="h" x="538.01" y="109.86" width="9.57" height="7.77"/><rect class="d" x="534.73" y="124.62" width="5.33" height="7.77"/><rect class="d" x="545.17" y="124.62" width="5.34" height="7.77"/><rect class="h" x="538.01" y="124.62" width="9.57" height="7.77"/><rect class="d" x="498.01" y="80.34" width="5.33" height="7.77"/><rect class="d" x="508.45" y="80.34" width="5.34" height="7.77"/><rect class="g" x="501.28" y="80.34" width="9.57" height="7.77"/><rect class="d" x="498.01" y="95.1" width="5.33" height="7.77"/><rect class="d" x="508.45" y="95.1" width="5.34" height="7.77"/><rect class="h" x="501.28" y="95.1" width="9.57" height="7.77"/><rect class="d" x="498.01" y="109.86" width="5.33" height="7.77"/><rect class="d" x="508.45" y="109.86" width="5.34" height="7.77"/><rect class="h" x="501.28" y="109.86" width="9.57" height="7.77"/><rect class="d" x="498.01" y="124.62" width="5.33" height="7.77"/><rect class="d" x="508.45" y="124.62" width="5.34" height="7.77"/><rect class="h" x="501.28" y="124.62" width="9.57" height="7.77"/><rect class="d" x="535.02" y="198.41" width="5.33" height="7.77"/><rect class="d" x="545.47" y="198.41" width="5.34" height="7.77"/><rect class="g" x="538.3" y="198.41" width="9.57" height="7.77"/><rect class="d" x="535.02" y="213.17" width="5.33" height="7.77"/><rect class="d" x="545.47" y="213.17" width="5.34" height="7.77"/><rect class="h" x="538.3" y="213.17" width="9.57" height="7.77"/><rect class="d" x="535.02" y="227.93" width="5.33" height="7.77"/><rect class="d" x="545.47" y="227.93" width="5.34" height="7.77"/><rect class="h" x="538.3" y="227.93" width="9.57" height="7.77"/><rect class="d" x="535.02" y="242.69" width="5.33" height="7.77"/><rect class="d" x="545.47" y="242.69" width="5.34" height="7.77"/><rect class="h" x="538.3" y="242.69" width="9.57" height="7.77"/><rect class="d" x="497.86" y="198.41" width="5.33" height="7.77"/><rect class="d" x="508.3" y="198.41" width="5.34" height="7.77"/><rect class="g" x="501.13" y="198.41" width="9.57" height="7.77"/><rect class="d" x="497.86" y="213.17" width="5.33" height="7.77"/><rect class="d" x="508.3" y="213.17" width="5.34" height="7.77"/><rect class="h" x="501.13" y="213.17" width="9.57" height="7.77"/><rect class="d" x="497.86" y="227.93" width="5.33" height="7.77"/><rect class="d" x="508.3" y="227.93" width="5.34" height="7.77"/><rect class="h" x="501.13" y="227.93" width="9.57" height="7.77"/><rect class="d" x="497.86" y="242.69" width="5.33" height="7.77"/><rect class="d" x="508.3" y="242.69" width="5.34" height="7.77"/><rect class="h" x="501.13" y="242.69" width="9.57" height="7.77"/><rect class="d" x="579.19" y="139.38" width="5.33" height="7.77"/><rect class="d" x="589.63" y="139.38" width="5.34" height="7.77"/><rect class="h" x="582.47" y="139.38" width="9.57" height="7.77"/><rect class="d" x="579.19" y="154.13" width="5.33" height="7.77"/><rect class="d" x="589.63" y="154.13" width="5.34" height="7.77"/><rect class="h" x="582.47" y="154.13" width="9.57" height="7.77"/><rect class="d" x="579.36" y="191.03" width="5.33" height="7.77"/><rect class="d" x="589.8" y="191.03" width="5.34" height="7.77"/><rect class="h" x="582.64" y="191.03" width="9.57" height="7.77"/><rect class="d" x="579.53" y="205.79" width="5.33" height="7.77"/><rect class="d" x="589.98" y="205.79" width="5.34" height="7.77"/><rect class="h" x="582.81" y="205.79" width="9.57" height="7.77"/><rect class="d" x="578.99" y="233.03" width="5.25" height="2.24"/><rect class="d" x="578.99" y="243.55" width="5.25" height="2.24"/><rect class="d" x="592.3" y="237.12" width="4.14" height="4.14"/><rect class="d" x="577.47" y="232.08" width="3.25" height="4.14"/><rect class="d" x="577.47" y="242.6" width="3.25" height="4.14"/><rect class="i" x="577.47" y="232.08" width="0.95" height="4.14"/><rect class="i" x="577.47" y="242.6" width="0.95" height="4.14"/><rect class="i" x="595.33" y="237.12" width="1.12" height="4.14"/><rect class="d" x="588.88" y="238.12" width="4.99" height="2.13"/><rect class="e" x="583.46" y="231.47" width="6.82" height="15.44"/><rect class="j" x="608.25" y="128.28" width="16.59" height="29.95"/><path class="i" d="M608.67,157.81v-29.1h15.75v29.1Zm16.59.85v-30.8H607.83v30.8Z"/><polyline class="i" points="617.72 149.16 619.16 150.52 617.72 151.88"/><polyline class="d" points="617.72 151.88 619.16 150.52 620.59 151.88"/><polygon class="d" points="617.72 149.16 620.59 149.16 619.16 150.52 617.72 149.16"/><polyline class="i" points="620.59 151.88 619.16 150.52 620.59 149.16"/><rect class="k" x="618.36" y="149.77" width="1.59" height="1.51"/><polyline class="i" points="617.72 141.9 619.16 143.26 617.72 144.62"/><polyline class="d" points="617.72 144.62 619.16 143.26 620.59 144.62"/><polygon class="d" points="617.72 141.9 620.59 141.9 619.16 143.26 617.72 141.9"/><polyline class="i" points="620.59 144.62 619.16 143.26 620.59 141.9"/><rect class="k" x="618.36" y="142.51" width="1.59" height="1.51"/><polyline class="i" points="617.72 134.64 619.16 136 617.72 137.36"/><polyline class="d" points="617.72 137.36 619.16 136 620.59 137.36"/><polygon class="d" points="617.72 134.64 620.59 134.64 619.16 136 617.72 134.64"/><polyline class="i" points="620.59 137.36 619.16 136 620.59 134.64"/><rect class="k" x="618.36" y="135.24" width="1.59" height="1.51"/><rect class="j" x="608.25" y="161.67" width="16.59" height="51.74"/><path class="i" d="M608.67,213v-50.9h15.75V213Zm16.59.84V161.24H607.83v52.59Z"/><polyline class="i" points="617.72 182.54 619.15 183.9 617.72 185.27"/><polyline class="d" points="617.72 185.26 619.15 183.9 620.59 185.26"/><polygon class="d" points="617.72 182.54 620.59 182.54 619.15 183.9 617.72 182.54"/><polyline class="i" points="620.59 185.26 619.15 183.91 620.59 182.54"/><rect class="k" x="618.36" y="183.15" width="1.59" height="1.51"/><polyline class="i" points="617.72 189.81 619.15 191.17 617.72 192.53"/><polyline class="d" points="617.72 192.53 619.15 191.17 620.59 192.53"/><polygon class="d" points="617.72 189.81 620.59 189.81 619.15 191.17 617.72 189.81"/><polyline class="i" points="620.59 192.53 619.15 191.17 620.59 189.81"/><rect class="k" x="618.36" y="190.41" width="1.59" height="1.51"/><polyline class="i" points="617.72 204.33 619.15 205.69 617.72 207.05"/><polyline class="d" points="617.72 207.05 619.15 205.69 620.59 207.05"/><polygon class="d" points="617.72 204.33 620.59 204.33 619.15 205.69 617.72 204.33"/><polyline class="i" points="620.59 207.05 619.15 205.69 620.59 204.33"/><rect class="k" x="618.36" y="204.94" width="1.59" height="1.51"/><polyline class="i" points="617.72 197.07 619.15 198.43 617.72 199.79"/><polyline class="d" points="617.72 199.79 619.15 198.43 620.59 199.79"/><polygon class="d" points="617.72 197.07 620.59 197.07 619.15 198.43 617.72 197.07"/><polyline class="i" points="620.59 199.79 619.15 198.43 620.59 197.07"/><rect class="k" x="618.36" y="197.67" width="1.59" height="1.51"/><polyline class="i" points="617.72 175.28 619.15 176.64 617.72 178"/><polyline class="d" points="617.72 178 619.15 176.64 620.59 178"/><polygon class="d" points="617.72 175.28 620.59 175.28 619.15 176.64 617.72 175.28"/><polyline class="i" points="620.59 178 619.15 176.64 620.59 175.28"/><rect class="k" x="618.36" y="175.89" width="1.59" height="1.51"/><polyline class="i" points="617.72 168.02 619.15 169.38 617.72 170.74"/><polyline class="d" points="617.72 170.74 619.15 169.38 620.59 170.74"/><polygon class="d" points="617.72 168.02 620.59 168.02 619.15 169.38 617.72 168.02"/><polyline class="i" points="620.59 170.74 619.15 169.38 620.59 168.02"/><rect class="k" x="618.36" y="168.62" width="1.59" height="1.51"/><rect class="j" x="475.42" y="21.43" width="16.59" height="51.74"/><path class="i" d="M475.84,72.75V21.85h15.75v50.9Zm16.59.84V21H475V73.59Z"/><polyline class="i" points="482.54 52.29 481.11 50.93 482.54 49.57"/><polyline class="d" points="482.54 49.57 481.11 50.93 479.67 49.57"/><polygon class="d" points="482.54 52.29 479.67 52.29 481.11 50.93 482.54 52.29"/><polyline class="i" points="479.67 49.57 481.1 50.93 479.67 52.29"/><rect class="k" x="480.31" y="50.18" width="1.59" height="1.51"/><polyline class="i" points="482.54 45.03 481.11 43.67 482.54 42.31"/><polyline class="d" points="482.54 42.31 481.11 43.67 479.67 42.31"/><polygon class="d" points="482.54 45.03 479.67 45.03 481.11 43.67 482.54 45.03"/><polyline class="i" points="479.67 42.31 481.1 43.67 479.67 45.03"/><rect class="k" x="480.31" y="42.92" width="1.59" height="1.51"/><polyline class="i" points="482.54 30.5 481.11 29.14 482.54 27.78"/><polyline class="d" points="482.54 27.78 481.11 29.14 479.67 27.78"/><polygon class="d" points="482.54 30.5 479.67 30.5 481.11 29.14 482.54 30.5"/><polyline class="i" points="479.67 27.78 481.1 29.14 479.67 30.5"/><rect class="k" x="480.31" y="28.39" width="1.59" height="1.51"/><polyline class="i" points="482.54 37.77 481.11 36.41 482.54 35.05"/><polyline class="d" points="482.54 35.05 481.11 36.41 479.67 35.05"/><polygon class="d" points="482.54 37.77 479.67 37.77 481.11 36.41 482.54 37.77"/><polyline class="i" points="479.67 35.05 481.1 36.41 479.67 37.77"/><rect class="k" x="480.31" y="35.65" width="1.59" height="1.51"/><polyline class="i" points="482.54 59.56 481.11 58.2 482.54 56.84"/><polyline class="d" points="482.54 56.84 481.11 58.2 479.67 56.84"/><polygon class="d" points="482.54 59.56 479.67 59.56 481.11 58.2 482.54 59.56"/><polyline class="i" points="479.67 56.84 481.1 58.2 479.67 59.56"/><rect class="k" x="480.31" y="57.44" width="1.59" height="1.51"/><polyline class="i" points="482.54 66.82 481.11 65.46 482.54 64.1"/><polyline class="d" points="482.54 64.1 481.11 65.46 479.67 64.1"/><polygon class="d" points="482.54 66.82 479.67 66.82 481.11 65.46 482.54 66.82"/><polyline class="i" points="479.67 64.1 481.1 65.46 479.67 66.82"/><rect class="k" x="480.31" y="64.7" width="1.59" height="1.51"/><rect class="j" x="475.42" y="80.49" width="16.59" height="51.74"/><path class="i" d="M475.84,131.81V80.92h15.75v50.89Zm16.59.85V80.07H475v52.59Z"/><polyline class="i" points="482.54 111.36 481.11 110 482.54 108.64"/><polyline class="d" points="482.54 108.64 481.11 110 479.67 108.64"/><polygon class="d" points="482.54 111.36 479.67 111.36 481.11 110 482.54 111.36"/><polyline class="i" points="479.67 108.64 481.1 110 479.67 111.36"/><rect class="k" x="480.31" y="109.24" width="1.59" height="1.51"/><polyline class="i" points="482.54 104.09 481.11 102.73 482.54 101.37"/><polyline class="d" points="482.54 101.37 481.11 102.73 479.67 101.37"/><polygon class="d" points="482.54 104.09 479.67 104.09 481.11 102.73 482.54 104.09"/><polyline class="i" points="479.67 101.37 481.1 102.73 479.67 104.09"/><rect class="k" x="480.31" y="101.98" width="1.59" height="1.51"/><polyline class="i" points="482.54 89.57 481.11 88.21 482.54 86.85"/><polyline class="d" points="482.54 86.85 481.11 88.21 479.67 86.85"/><polygon class="d" points="482.54 89.57 479.67 89.57 481.11 88.21 482.54 89.57"/><polyline class="i" points="479.67 86.85 481.1 88.21 479.67 89.57"/><rect class="k" x="480.31" y="87.45" width="1.59" height="1.51"/><polyline class="i" points="482.54 96.83 481.11 95.47 482.54 94.11"/><polyline class="d" points="482.54 94.11 481.11 95.47 479.67 94.11"/><polygon class="d" points="482.54 96.83 479.67 96.83 481.11 95.47 482.54 96.83"/><polyline class="i" points="479.67 94.11 481.1 95.47 479.67 96.83"/><rect class="k" x="480.31" y="94.72" width="1.59" height="1.51"/><polyline class="i" points="482.54 118.62 481.11 117.26 482.54 115.9"/><polyline class="d" points="482.54 115.9 481.11 117.26 479.67 115.9"/><polygon class="d" points="482.54 118.62 479.67 118.62 481.11 117.26 482.54 118.62"/><polyline class="i" points="479.67 115.9 481.1 117.26 479.67 118.62"/><rect class="k" x="480.31" y="116.5" width="1.59" height="1.51"/><polyline class="i" points="482.54 125.88 481.11 124.52 482.54 123.16"/><polyline class="d" points="482.54 123.16 481.11 124.52 479.67 123.16"/><polygon class="d" points="482.54 125.88 479.67 125.88 481.11 124.52 482.54 125.88"/><polyline class="i" points="479.67 123.16 481.1 124.52 479.67 125.88"/><rect class="k" x="480.31" y="123.77" width="1.59" height="1.51"/><rect class="j" x="475.42" y="139.51" width="16.59" height="51.74"/><path class="i" d="M475.84,190.83V139.94h15.75v50.89Zm16.59.85V139.09H475v52.59Z"/><polyline class="i" points="482.54 170.38 481.11 169.02 482.54 167.65"/><polyline class="d" points="482.54 167.65 481.11 169.02 479.67 167.65"/><polygon class="d" points="482.54 170.38 479.67 170.38 481.11 169.02 482.54 170.38"/><polyline class="i" points="479.67 167.65 481.1 169.02 479.67 170.38"/><rect class="k" x="480.31" y="168.26" width="1.59" height="1.51"/><polyline class="i" points="482.54 163.11 481.11 161.75 482.54 160.39"/><polyline class="d" points="482.54 160.39 481.11 161.75 479.67 160.39"/><polygon class="d" points="482.54 163.11 479.67 163.11 481.11 161.75 482.54 163.11"/><polyline class="i" points="479.67 160.39 481.1 161.75 479.67 163.11"/><rect class="k" x="480.31" y="161" width="1.59" height="1.51"/><polyline class="i" points="482.54 148.59 481.11 147.23 482.54 145.87"/><polyline class="d" points="482.54 145.87 481.11 147.23 479.67 145.87"/><polygon class="d" points="482.54 148.59 479.67 148.59 481.11 147.23 482.54 148.59"/><polyline class="i" points="479.67 145.87 481.1 147.23 479.67 148.59"/><rect class="k" x="480.31" y="146.47" width="1.59" height="1.51"/><polyline class="i" points="482.54 155.85 481.11 154.49 482.54 153.13"/><polyline class="d" points="482.54 153.13 481.11 154.49 479.67 153.13"/><polygon class="d" points="482.54 155.85 479.67 155.85 481.11 154.49 482.54 155.85"/><polyline class="i" points="479.67 153.13 481.1 154.49 479.67 155.85"/><rect class="k" x="480.31" y="153.73" width="1.59" height="1.51"/><polyline class="i" points="482.54 177.64 481.11 176.28 482.54 174.92"/><polyline class="d" points="482.54 174.92 481.11 176.28 479.67 174.92"/><polygon class="d" points="482.54 177.64 479.67 177.64 481.11 176.28 482.54 177.64"/><polyline class="i" points="479.67 174.92 481.1 176.28 479.67 177.64"/><rect class="k" x="480.31" y="175.52" width="1.59" height="1.51"/><polyline class="i" points="482.54 184.9 481.11 183.54 482.54 182.18"/><polyline class="d" points="482.54 182.18 481.11 183.54 479.67 182.18"/><polygon class="d" points="482.54 184.9 479.67 184.9 481.11 183.54 482.54 184.9"/><polyline class="i" points="479.67 182.18 481.1 183.54 479.67 184.9"/><rect class="k" x="480.31" y="182.79" width="1.59" height="1.51"/><rect class="j" x="475.42" y="198.58" width="16.59" height="51.74"/><path class="i" d="M475.84,249.9V199h15.75v50.9Zm16.59.84V198.15H475v52.59Z"/><polyline class="i" points="482.54 229.44 481.11 228.08 482.54 226.72"/><polyline class="d" points="482.54 226.72 481.11 228.08 479.67 226.72"/><polygon class="d" points="482.54 229.44 479.67 229.44 481.11 228.08 482.54 229.44"/><polyline class="i" points="479.67 226.72 481.1 228.08 479.67 229.44"/><rect class="k" x="480.31" y="227.32" width="1.59" height="1.51"/><polyline class="i" points="482.54 222.18 481.11 220.82 482.54 219.45"/><polyline class="d" points="482.54 219.45 481.11 220.82 479.67 219.45"/><polygon class="d" points="482.54 222.18 479.67 222.18 481.11 220.82 482.54 222.18"/><polyline class="i" points="479.67 219.45 481.1 220.82 479.67 222.18"/><rect class="k" x="480.31" y="220.06" width="1.59" height="1.51"/><polyline class="i" points="482.54 207.65 481.11 206.29 482.54 204.93"/><polyline class="d" points="482.54 204.93 481.11 206.29 479.67 204.93"/><polygon class="d" points="482.54 207.65 479.67 207.65 481.11 206.29 482.54 207.65"/><polyline class="i" points="479.67 204.93 481.1 206.29 479.67 207.65"/><rect class="k" x="480.31" y="205.53" width="1.59" height="1.51"/><polyline class="i" points="482.54 214.91 481.11 213.55 482.54 212.19"/><polyline class="d" points="482.54 212.19 481.11 213.55 479.67 212.19"/><polygon class="d" points="482.54 214.91 479.67 214.91 481.11 213.55 482.54 214.91"/><polyline class="i" points="479.67 212.19 481.1 213.55 479.67 214.91"/><rect class="k" x="480.31" y="212.8" width="1.59" height="1.51"/><polyline class="i" points="482.54 236.7 481.11 235.34 482.54 233.98"/><polyline class="d" points="482.54 233.98 481.11 235.34 479.67 233.98"/><polygon class="d" points="482.54 236.7 479.67 236.7 481.11 235.34 482.54 236.7"/><polyline class="i" points="479.67 233.98 481.1 235.34 479.67 236.7"/><rect class="k" x="480.31" y="234.59" width="1.59" height="1.51"/><polyline class="i" points="482.54 243.97 481.11 242.6 482.54 241.24"/><polyline class="d" points="482.54 241.24 481.11 242.61 479.67 241.24"/><polygon class="d" points="482.54 243.97 479.67 243.97 481.11 242.6 482.54 243.97"/><polyline class="i" points="479.67 241.24 481.1 242.6 479.67 243.97"/><rect class="k" x="480.31" y="241.85" width="1.59" height="1.51"/><rect class="l" x="568.29" y="28.8" width="61.01" height="81.35"/><rect class="m" x="608.09" y="223.68" width="21.21" height="30.97"/><path class="k" d="M618.7,247.59a2.25,2.25,0,1,0-2.25-2.25,2.24,2.24,0,0,0,2.25,2.25"/><path class="n" d="M619.92,243.46l-3.11,3.1a2.22,2.22,0,0,0,.66.67l3.11-3.11a2.31,2.31,0,0,0-.66-.66"/><path class="k" d="M618.7,235.23a2.25,2.25,0,1,0-2.25-2.25,2.24,2.24,0,0,0,2.25,2.25"/><path class="n" d="M619.92,231.09l-3.11,3.11a2.31,2.31,0,0,0,.66.66l3.11-3.11a2.31,2.31,0,0,0-.66-.66"/></g></g><g class="o"><g class="o"><path class="p" d="M365.22,76.55H246.93a1.41,1.41,0,0,1-1.41-1.42V19a1.41,1.41,0,0,1,1.41-1.42H365.22A1.42,1.42,0,0,1,366.64,19V75.13a1.42,1.42,0,0,1-1.42,1.42"/><path class="e" d="M310.07,48.39H293.64a1.72,1.72,0,0,1-1.71-1.71V30.25a1.71,1.71,0,0,1,1.71-1.7h16.43a1.7,1.7,0,0,1,1.7,1.7V46.68a1.71,1.71,0,0,1-1.7,1.71"/><path class="q" d="M296.27,31a1.42,1.42,0,1,1-1.42-1.42A1.42,1.42,0,0,1,296.27,31"/><rect class="r" x="309.26" y="23.73" width="1.13" height="4.82"/><rect class="r" x="307" y="23.73" width="1.13" height="4.82"/><rect class="r" x="304.73" y="23.73" width="1.13" height="4.82"/><rect class="r" x="302.46" y="23.73" width="1.13" height="4.82"/><rect class="r" x="300.19" y="23.73" width="1.13" height="4.82"/><rect class="r" x="297.92" y="23.73" width="1.13" height="4.82"/><rect class="r" x="295.66" y="23.73" width="1.13" height="4.82"/><rect class="r" x="293.39" y="23.73" width="1.13" height="4.82"/><rect class="r" x="309.26" y="48.39" width="1.13" height="4.82"/><rect class="r" x="307" y="48.39" width="1.13" height="4.82"/><rect class="r" x="304.73" y="48.39" width="1.13" height="4.82"/><rect class="r" x="302.46" y="48.39" width="1.13" height="4.82"/><rect class="r" x="300.19" y="48.39" width="1.13" height="4.82"/><rect class="r" x="297.92" y="48.39" width="1.13" height="4.82"/><rect class="r" x="295.66" y="48.39" width="1.13" height="4.82"/><rect class="r" x="293.39" y="48.39" width="1.13" height="4.82"/><rect class="r" x="311.77" y="29.96" width="4.82" height="1.13"/><rect class="r" x="311.77" y="32.23" width="4.82" height="1.13"/><rect class="r" x="311.77" y="34.5" width="4.82" height="1.13"/><rect class="r" x="311.77" y="36.76" width="4.82" height="1.13"/><rect class="r" x="311.77" y="39.03" width="4.82" height="1.13"/><rect class="r" x="311.77" y="41.3" width="4.82" height="1.13"/><rect class="r" x="311.77" y="43.57" width="4.82" height="1.13"/><rect class="r" x="311.77" y="45.84" width="4.82" height="1.13"/><rect class="r" x="287.11" y="29.96" width="4.82" height="1.13"/><rect class="r" x="287.11" y="32.23" width="4.82" height="1.13"/><rect class="r" x="287.11" y="34.5" width="4.82" height="1.13"/><rect class="r" x="287.11" y="36.76" width="4.82" height="1.13"/><rect class="r" x="287.11" y="39.03" width="4.82" height="1.13"/><rect class="r" x="287.11" y="41.3" width="4.82" height="1.13"/><rect class="r" x="287.11" y="43.57" width="4.82" height="1.13"/><rect class="r" x="287.11" y="45.84" width="4.82" height="1.13"/><rect class="d" x="269.2" y="38.9" width="2.04" height="2.96"/><rect class="d" x="265.22" y="38.9" width="2.04" height="2.96"/><rect class="h" x="266.34" y="38.9" width="3.65" height="2.96"/><rect class="d" x="269.14" y="44.35" width="2.04" height="2.96"/><rect class="d" x="265.15" y="44.35" width="2.04" height="2.96"/><rect class="h" x="266.27" y="44.35" width="3.65" height="2.96"/><rect class="d" x="272.86" y="29.61" width="4.21" height="4.19"/><rect class="d" x="264.6" y="29.61" width="4.22" height="4.19"/><rect class="s" x="266.92" y="29.61" width="7.56" height="4.19"/><rect class="t" x="267.71" y="29.61" width="0.58" height="4.19"/><rect class="d" x="265.16" y="59.12" width="4.19" height="4.22"/><rect class="d" x="265.16" y="50.86" width="4.19" height="4.22"/><rect class="s" x="265.16" y="53.19" width="4.19" height="7.56"/><rect class="t" x="265.16" y="53.97" width="4.19" height="0.58"/><rect class="d" x="277.07" y="50.54" width="2.04" height="2.96"/><rect class="d" x="273.09" y="50.54" width="2.04" height="2.96"/><rect class="h" x="274.21" y="50.54" width="3.65" height="2.96"/><rect class="d" x="327.5" y="39.82" width="2.04" height="2.96"/><rect class="d" x="323.52" y="39.82" width="2.04" height="2.96"/><rect class="h" x="324.64" y="39.82" width="3.65" height="2.96"/><rect class="d" x="327.44" y="34.5" width="2.03" height="2.96"/><rect class="d" x="323.45" y="34.5" width="2.04" height="2.96"/><rect class="t" x="324.57" y="34.5" width="3.65" height="2.96"/><rect class="e" x="325.51" y="35.81" width="0.35" height="0.35"/><rect class="d" x="327.44" y="29.48" width="2.03" height="2.96"/><rect class="d" x="323.45" y="29.48" width="2.04" height="2.96"/><rect class="t" x="324.57" y="29.48" width="3.65" height="2.96"/><rect class="e" x="325.51" y="30.79" width="0.35" height="0.35"/><rect class="d" x="341.13" y="32.1" width="2.04" height="2.96"/><rect class="d" x="337.15" y="32.1" width="2.04" height="2.96"/><rect class="h" x="338.27" y="32.1" width="3.65" height="2.96"/><rect class="d" x="327.44" y="44.92" width="2.03" height="2.96"/><rect class="d" x="323.45" y="44.92" width="2.04" height="2.96"/><rect class="h" x="324.57" y="44.92" width="3.65" height="2.96"/><rect class="d" x="327.44" y="50.02" width="2.03" height="2.96"/><rect class="d" x="323.45" y="50.02" width="2.04" height="2.96"/><rect class="h" x="324.57" y="50.02" width="3.65" height="2.96"/><rect class="d" x="274.21" y="64.42" width="2.91" height="1.99"/><rect class="d" x="274.21" y="60.51" width="2.91" height="2"/><rect class="g" x="274.21" y="61.61" width="2.91" height="3.58"/><rect class="d" x="290.18" y="70.49" width="2" height="2.91"/><rect class="d" x="294.08" y="70.49" width="2" height="2.91"/><rect class="g" x="291.4" y="70.49" width="3.58" height="2.91"/><rect class="d" x="302.68" y="70.64" width="2" height="2.91"/><rect class="d" x="306.58" y="70.64" width="2" height="2.91"/><rect class="g" x="303.9" y="70.64" width="3.58" height="2.91"/></g><g class="u"><rect class="d" x="265.72" y="68.28" width="3.17" height="4.62"/><rect class="d" x="259.5" y="68.28" width="3.18" height="4.62"/><rect class="h" x="261.25" y="68.28" width="5.69" height="4.62"/></g><g class="v"><rect class="d" x="333.32" y="54.53" width="2.52" height="1.07"/><rect class="d" x="333.32" y="59.57" width="2.52" height="1.08"/><rect class="d" x="339.72" y="56.49" width="1.99" height="1.99"/><rect class="d" x="332.59" y="54.07" width="1.56" height="1.99"/><rect class="d" x="332.59" y="59.12" width="1.56" height="1.99"/><rect class="i" x="332.59" y="54.07" width="0.46" height="1.99"/><rect class="i" x="332.59" y="59.12" width="0.46" height="1.99"/><rect class="i" x="341.17" y="56.49" width="0.54" height="1.99"/><rect class="d" x="338.07" y="56.97" width="2.4" height="1.02"/><rect class="e" x="335.47" y="53.77" width="3.28" height="7.42"/></g><g class="o"><rect class="m" x="203" y="30.04" width="53.86" height="34.02"/><rect class="w" x="217.05" y="34.66" width="5.25" height="6.8"/><rect class="w" x="216.8" y="51.87" width="5.75" height="7.38"/><rect class="w" x="256.86" y="36.07" width="3.4" height="2.01"/><rect class="w" x="256.86" y="43.31" width="3.4" height="2.01"/><rect class="w" x="256.86" y="48.83" width="3.4" height="2.01"/><rect class="w" x="256.86" y="56.01" width="3.4" height="2.01"/><path class="m" d="M309.43,67.51H290.9a5.67,5.67,0,1,1,0-11.33h18.53a5.67,5.67,0,1,1,0,11.33"/></g><text class="x" transform="translate(344.49 66.69)">GND</text><text class="x" transform="translate(345.05 30.67)">VCC</text><text class="x" transform="translate(342.83 52.29)">MOSI</text><text class="x" transform="translate(342.83 45.09)">MISO</text><text class="x" transform="translate(345.32 37.9)">SCK</text><text class="x" transform="translate(345.69 59.49)">RST</text><text class="y" transform="translate(318.42 73.55)">USBasp</text><g class="z"><rect class="aa" x="361.28" y="31.65" width="1.3" height="1.95"/><rect class="aa" x="359.98" y="31.65" width="1.3" height="1.95"/><polygon class="aa" points="364.93 34.6 363.11 32.96 359.46 32.96 357.64 34.6 357.64 37.89 359.46 39.54 363.11 39.54 364.93 37.89 364.93 34.6"/><polyline class="ab" points="360.22 35.42 361.28 36.43 360.22 37.43"/><polyline class="ac" points="360.22 37.43 361.28 36.43 362.34 37.43"/><polygon class="ac" points="360.22 35.42 362.34 35.42 361.28 36.43 360.22 35.42"/><rect class="ac" x="361.87" y="35.42" width="8.83" height="2.02"/><rect class="f" x="360.69" y="35.87" width="9.54" height="1.12"/><polygon class="ab" points="370.7 35.42 370.23 35.87 370.23 36.98 370.7 37.43 370.7 35.42"/><rect class="aa" x="361.28" y="39.08" width="1.3" height="1.96"/><rect class="aa" x="359.98" y="39.08" width="1.3" height="1.96"/><polygon class="aa" points="364.93 41.8 363.11 40.16 359.46 40.16 357.64 41.8 357.64 45.09 359.46 46.74 363.11 46.74 364.93 45.09 364.93 41.8"/><polyline class="ab" points="360.22 42.62 361.28 43.63 360.22 44.63"/><polyline class="ac" points="360.22 44.63 361.28 43.63 362.34 44.63"/><polygon class="ac" points="360.22 42.62 362.34 42.62 361.28 43.63 360.22 42.62"/><rect class="ac" x="361.87" y="42.62" width="8.83" height="2.02"/><rect class="f" x="360.69" y="43.07" width="9.54" height="1.12"/><polygon class="ab" points="370.7 42.62 370.23 43.07 370.23 44.19 370.7 44.63 370.7 42.62"/><rect class="aa" x="361.28" y="46.6" width="1.3" height="1.95"/><rect class="aa" x="359.98" y="46.6" width="1.3" height="1.95"/><rect class="aa" x="361.28" y="53.62" width="1.3" height="1.95"/><rect class="aa" x="359.98" y="53.62" width="1.3" height="1.95"/><polygon class="aa" points="364.93 27.4 363.11 25.76 359.46 25.76 357.64 27.4 357.64 30.69 359.46 32.34 363.11 32.34 364.93 30.69 364.93 27.4"/><polyline class="ab" points="360.22 28.22 361.28 29.23 360.22 30.23"/><polyline class="ac" points="360.22 30.23 361.28 29.23 362.34 30.23"/><polygon class="ac" points="360.22 28.22 362.34 28.22 361.28 29.23 360.22 28.22"/><rect class="ac" x="361.87" y="28.22" width="8.83" height="2.02"/><rect class="f" x="360.69" y="28.67" width="9.54" height="1.12"/><polygon class="ab" points="370.7 28.22 370.23 28.67 370.23 29.79 370.7 30.23 370.7 28.22"/><polygon class="aa" points="364.93 49 363.11 47.36 359.46 47.36 357.64 49 357.64 52.29 359.46 53.94 363.11 53.94 364.93 52.29 364.93 49"/><polyline class="ab" points="360.22 49.82 361.28 50.83 360.22 51.83"/><polyline class="ac" points="360.22 51.83 361.28 50.83 362.34 51.83"/><polygon class="ac" points="360.22 49.82 362.34 49.82 361.28 50.83 360.22 49.82"/><rect class="ac" x="361.87" y="49.82" width="8.83" height="2.02"/><rect class="f" x="360.69" y="50.27" width="9.54" height="1.12"/><polygon class="ab" points="370.7 49.82 370.23 50.27 370.23 51.38 370.7 51.83 370.7 49.82"/><polygon class="aa" points="364.93 56.2 363.11 54.56 359.46 54.56 357.64 56.2 357.64 59.49 359.46 61.14 363.11 61.14 364.93 59.49 364.93 56.2"/><polyline class="ab" points="360.22 57.02 361.28 58.02 360.22 59.03"/><polyline class="ac" points="360.22 59.03 361.28 58.02 362.34 59.03"/><polygon class="ac" points="360.22 57.02 362.34 57.02 361.28 58.02 360.22 57.02"/><rect class="ac" x="361.87" y="57.02" width="8.83" height="2.02"/><rect class="f" x="360.69" y="57.47" width="9.54" height="1.12"/><polygon class="ab" points="370.7 57.02 370.23 57.47 370.23 58.59 370.7 59.03 370.7 57.02"/><rect class="aa" x="361.28" y="60.83" width="1.3" height="1.95"/><rect class="aa" x="359.98" y="60.83" width="1.3" height="1.95"/><polygon class="aa" points="364.93 63.4 363.11 61.76 359.46 61.76 357.64 63.4 357.64 66.69 359.46 68.34 363.11 68.34 364.93 66.69 364.93 63.4"/><polyline class="ab" points="360.22 64.22 361.28 65.22 360.22 66.23"/><polyline class="ac" points="360.22 66.23 361.28 65.22 362.34 66.23"/><polygon class="ac" points="360.22 64.22 362.34 64.22 361.28 65.22 360.22 64.22"/><rect class="ac" x="361.87" y="64.22" width="8.83" height="2.02"/><rect class="f" x="360.69" y="64.67" width="9.54" height="1.12"/><polygon class="ab" points="370.7 64.22 370.23 64.67 370.23 65.78 370.7 66.23 370.7 64.22"/></g></g><line class="ad" x1="370.7" y1="29.13" x2="480.25" y2="29.13"/><line class="ae" x1="370.7" y1="36.33" x2="480.25" y2="36.33"/><line class="af" x1="370.7" y1="43.53" x2="480.25" y2="43.53"/><line class="ag" x1="370.7" y1="50.73" x2="480.25" y2="50.73"/><line class="ah" x1="370.7" y1="57.93" x2="480.25" y2="57.93"/><line class="ai" x1="370.7" y1="65.13" x2="480.25" y2="65.13"/><text class="aj" transform="translate(453.61 109.97)">2</text><text class="aj" transform="translate(453.61 168.97)">3</text><text class="aj" transform="translate(453.61 228.59)">4</text><line class="a" x1="198.63" y1="47.05" x2="188.75" y2="46.34"/><line class="ak" x1="181.06" y1="46.34" x2="198" y2="46.34"/><polygon class="e" points="182.23 50.33 175.32 46.34 182.23 42.35 182.23 50.33"/><path class="al" d="M111.42,80.79H61.75V18a3.4,3.4,0,0,1,3.4-3.42H157.7A3.4,3.4,0,0,1,161.1,18V80.79Z"/><path class="am" d="M173.83,83.9H110.19v1.62h58.17C172.93,85.33,173.83,83.9,173.83,83.9Z"/><path class="am" d="M49.09,83.9h63.56v1.62H54.56C50,85.33,49.09,83.9,49.09,83.9Z"/><rect class="an" x="49.09" y="80.79" width="124.74" height="3.11"/><path class="ao" d="M120.33,80.79a2.11,2.11,0,0,1-2.08,1.71H104.63a2.13,2.13,0,0,1-2.08-1.71Z"/><path class="ap" d="M111.42,77.37H65.15V18H157.7V77.37Z"/><circle class="aq" cx="111.42" cy="16.22" r="0.73"/><path class="ar" d="M157.7,18V77.37h-59Z"/></svg>